<?xml version="1.0" encoding="UTF-8"?><svg id="Layer_1" xmlns="http://www.w3.org/2000/svg" viewBox="0 0 612 612"><defs><style>.cls-1{fill:none;stroke:#000;stroke-linecap:round;stroke-miterlimit:10;stroke-width:30.17px;}</style></defs><path class="cls-1" d="M405.84,187.88c2.3-12.35,2.46-24.61,.76-36.39-1.47-10.17-4.34-19.98-8.44-29.19-3.6-8.1-8.15-15.74-13.54-22.75-6.06-7.89-13.18-14.98-21.19-21.04-5.03-3.8-10.41-7.2-16.11-10.13-9.43-4.85-19.72-8.43-30.68-10.47-7.57-1.41-15.09-2.02-22.5-1.88-12.77,.23-25.17,2.66-36.76,6.98-11.94,4.45-23.02,10.92-32.74,19.06-10.4,8.71-19.26,19.34-25.97,31.47-5.64,10.2-9.76,21.47-12.01,33.57-2.4,12.9-2.47,25.69-.52,37.94,1.95,12.25,5.93,23.97,11.65,34.72,1.1,2.06,7.17,13.33,17.22,24.07,24.24,25.9,54.51,30.5,104.45,55.6,4.48,2.25,14.63,7.46,24.8,17.47,7.89,7.78,12.83,15.54,15.42,20.09,2.59,4.54,6.01,11.44,8.58,20.33,2.96,10.26,3.58,19.02,3.65,24.62,.08,6.41-.52,11.82-1.16,15.81-.82,5.11-2.81,14.76-8.13,25.76-3.49,7.21-7.26,12.63-9.85,16.03-1.45,1.9-3.45,4.36-5.96,7.04-2.9,3.1-8.62,8.77-16.88,14.18-11.92,7.81-23.12,11.13-28.97,12.55-14.85,3.61-27.24,2.75-33.95,1.88-6.01-.78-16.56-2.76-28.46-8.52-12.75-6.17-21.26-13.88-25.72-18.39-4.46-4.52-11.69-12.8-17.54-24.97-4.38-9.12-6.53-17.4-7.65-23.45"/><path class="cls-1" d="M326.83,543.88c-11.48,4.99-23.8,8.58-36.77,10.51-19.29,2.87-38.27,1.83-56.11-2.54-17.79-4.35-34.46-12.01-49.2-22.37-9.9-6.96-18.94-15.15-26.87-24.37-9.84-11.45-17.96-24.5-23.92-38.82-4.52-10.87-7.79-22.46-9.6-34.64-2.31-15.49-2.09-30.78,.35-45.44,1.99-11.94,5.44-23.46,10.2-34.35,7.29-16.68,17.64-31.85,30.45-44.7,8.19-8.22,15.82-13.44,30.73-23.56,35.17-23.87,43.93-23.22,63.45-41.45,13.2-12.33,19.97-22.69,24.18-30.74,5.14-9.84,7.77-18.72,9.16-24.6,2-8.47,3.56-19.76,2.46-32.9-.46-5.51-1.66-14.68-5.35-25.46-4.76-13.91-11.37-23.79-15.34-29.08-3.65-4.88-9.5-11.81-17.98-18.68-13.27-10.76-26.34-16.01-34.44-18.6-11.65-3.72-21.57-4.66-27.59-4.92-7.66-.33-21.96-.09-38.65,5.62-14.39,4.92-24.55,11.87-29.93,15.98-16.62,12.7-25.55,27.43-29.78,35.67-8.04,15.67-10.49,30.09-11.29,39.2"/><path class="cls-1" d="M407.74,428.87c29.99-12.85,59.98-25.71,89.97-38.56"/><path class="cls-1" d="M429.33,463.36c32.56,2.16,65.12,4.31,97.67,6.47"/><path class="cls-1" d="M495.84,544.16c-28.74-15.44-57.49-30.88-86.24-46.32"/></svg>